<svg width="42" height="42" viewBox="0 0 42 42" fill="none" xmlns="http://www.w3.org/2000/svg">
<mask id="path-1-outside-1_3149_537" maskUnits="userSpaceOnUse" x="0" y="6.54883" width="42" height="35" fill="black">
<rect fill="white" y="6.54883" width="42" height="35"/>
<path d="M40.95 21.4572C40.45 19.5905 39.3167 18.7238 37.4 18.7238C34.1333 18.7238 30.875 18.7238 27.6083 18.7238H27.275L27.375 18.4322C27.9167 16.7488 28.4583 14.9322 28.6833 13.0655C28.7917 12.1572 28.85 11.0905 28.375 10.0738C27.6667 8.54049 26.125 7.54883 24.4417 7.54883C24.175 7.54883 23.9 7.57383 23.6333 7.62383C21.65 7.99883 20.2167 9.71549 20.15 11.7988C20.1083 13.0572 19.7083 14.2238 18.925 15.3572C18.1417 16.4905 17.125 17.5155 15.7333 18.5738C15.1167 19.0488 14.4667 19.4988 13.8417 19.9405C13.5917 20.1155 13.3417 20.2905 13.0917 20.4655C12.4667 19.2322 11.825 18.8488 10.425 18.8488C10.2917 18.8488 10.15 18.8488 10.0167 18.8488C9.75833 18.8488 9.50833 18.8488 9.25833 18.8488C7.99167 18.8655 7.16667 19.4988 6.8 20.7155C6.79167 20.7488 6.775 20.7822 6.75833 20.8155V20.8238H5.15C4.79167 20.8238 4.44167 20.8238 4.08333 20.8322C3.05833 20.8405 2.225 21.2488 1.61667 22.0405C1.3 22.4488 1.31667 22.8405 1.65833 23.0988C1.98333 23.3488 2.375 23.2738 2.69167 22.8738C3.01667 22.4655 3.375 22.2488 3.75833 22.2405C4.13333 22.2322 4.53333 22.2238 5.025 22.2238C5.325 22.2238 5.61667 22.2238 5.91667 22.2238C6.18333 22.2238 6.45 22.2238 6.725 22.2238V37.6405H5.225C4.9 37.6405 4.56667 37.6405 4.24167 37.6405C2.99167 37.6322 2.36667 36.9905 2.36667 35.7405V34.2738C2.36667 31.3488 2.36667 28.4155 2.36667 25.4822C2.36667 25.1322 2.33333 24.7905 1.91667 24.6238C1.83333 24.5905 1.75 24.5738 1.66667 24.5738C1.38333 24.5738 1.2 24.7655 1.025 24.9822L1 25.0072V36.4655L1.06667 36.6655C1.1 36.7572 1.125 36.8405 1.15833 36.9322C1.55833 38.1322 2.61667 38.9488 3.85 38.9905C4.25 39.0072 4.68333 39.0155 5.2 39.0155C5.55 39.0155 5.9 39.0155 6.24167 39.0072H6.50833C6.71667 39.0072 6.79167 39.0405 6.85 39.2572C7.06667 40.0488 7.59167 40.5905 8.40833 40.8822C8.475 40.9072 8.54167 40.9322 8.60833 40.9572L8.68333 40.9905L11.2167 40.9988H11.2333C12.1 40.7405 12.6833 40.2655 13.0083 39.5488L13.2167 39.6655C13.4083 39.7738 13.5917 39.8738 13.775 39.9822C14.825 40.5988 15.9417 40.9072 17.1167 40.9155C19.65 40.9238 22.375 40.9238 25.0917 40.9238H33.075C33.5833 40.9238 33.8917 40.6655 33.8917 40.2405C33.8917 39.8072 33.6 39.5655 33.0833 39.5572C32.5583 39.5572 32.025 39.5572 31.5 39.5572H30.4417C26.3083 39.5572 21.4583 39.5572 17.3167 39.5572C16.2333 39.5572 15.2333 39.2822 14.3333 38.7238C14.0583 38.5572 13.7833 38.3822 13.475 38.2655C13.2667 38.1822 13.2083 38.0905 13.2083 37.8405C13.2167 35.9155 13.2167 33.9988 13.2167 32.0738V30.2988V22.2322C13.2167 22.0572 13.2167 21.9572 13.3833 21.8572C15.6333 20.4822 17.2333 19.2655 18.575 17.8905C20.5417 15.8905 21.4917 13.8988 21.5417 11.6405C21.575 10.1738 22.7333 9.02383 24.2917 8.91549C25.725 8.80716 27.0417 9.83216 27.3083 11.2072C27.4333 11.8405 27.3667 12.5238 27.3083 12.9905C27.0333 15.1488 26.375 17.1988 25.7583 18.9238C25.6167 19.3322 25.6083 19.6155 25.75 19.8072C25.8833 19.9988 26.15 20.0905 26.5667 20.0905H31.25C33.3333 20.0905 35.4083 20.0905 37.4917 20.0988C37.8333 20.0988 38.1083 20.1322 38.3417 20.2072C39.2083 20.4822 39.7667 21.3905 39.625 22.2905C39.475 23.2322 38.6917 23.9238 37.7667 23.9322C37.0667 23.9405 36.3667 23.9405 35.6667 23.9405H32.8667C32.0833 23.9405 31.9583 24.3572 31.9583 24.6072C31.9583 24.7905 32.0167 24.9488 32.125 25.0655C32.275 25.2238 32.525 25.2988 32.8417 25.2988H34.7167C35.2833 25.2988 35.85 25.2988 36.4167 25.3072C36.7 25.3072 36.9417 25.3405 37.15 25.4072C38.025 25.6822 38.5833 26.5738 38.4583 27.4738C38.325 28.4322 37.5333 29.1238 36.575 29.1322C35.9167 29.1405 35.25 29.1405 34.5917 29.1405H31.8417H31.6667C31.625 29.1405 31.575 29.1405 31.525 29.1405C31.0917 29.1572 30.7917 29.4488 30.7917 29.8322C30.8 30.2238 31.1083 30.4988 31.55 30.4988C31.8333 30.4988 32.125 30.4988 32.4083 30.4988H33.7083C34.2167 30.4988 34.725 30.4988 35.2417 30.5072C35.55 30.5072 35.8167 30.5488 36.05 30.6322C36.9 30.9238 37.4333 31.8072 37.3 32.6988C37.15 33.6405 36.3667 34.3238 35.4417 34.3405C34.6583 34.3488 33.8833 34.3488 33.1 34.3488H30.9083H30.5C29.9583 34.3488 29.6417 34.5988 29.6333 35.0238C29.6333 35.2072 29.6917 35.3655 29.8083 35.4822C29.9583 35.6322 30.1917 35.7155 30.4917 35.7155C31.2833 35.7155 32.0833 35.7155 32.875 35.7155H34.0667C35.1 35.7155 35.8333 36.2322 36.0833 37.1322C36.325 38.0238 35.9583 38.8405 35.0667 39.3655C34.6583 39.6072 34.5167 39.9822 34.7083 40.3322C34.8917 40.6822 35.2917 40.7738 35.7167 40.5655C37.025 39.9238 37.7667 38.4155 37.45 37.0572C37.35 36.6488 37.1667 36.2488 36.9917 35.8655C36.925 35.7155 36.85 35.5655 36.7917 35.4155C37.75 34.9572 38.375 34.1738 38.6083 33.1488C38.8417 32.1155 38.6 31.1405 37.875 30.2405C38.9167 29.7405 39.5417 28.9822 39.775 27.9322C40.0083 26.9238 39.775 25.9488 39.1 25.1072C39.225 24.9988 39.35 24.8905 39.475 24.7905C39.8167 24.5072 40.1333 24.2322 40.3917 23.8988C40.6 23.6238 40.7333 23.2738 40.85 22.9488C40.9 22.8072 40.95 22.6572 41.0167 22.5155L41 21.5072L40.95 21.4572ZM8.11667 24.4155C8.11667 23.3405 8.10833 22.2238 8.125 21.1322C8.13333 20.6572 8.55 20.2572 9.05 20.2405C9.65 20.2155 10.2833 20.2155 10.9 20.2405C11.3917 20.2655 11.7917 20.6322 11.8 21.0655C11.825 22.1655 11.8167 23.2988 11.8167 24.3905C11.8167 24.7905 11.8167 25.1988 11.8167 25.6072H8.11667C8.11667 25.1988 8.11667 24.8072 8.11667 24.4155ZM11.8167 27.0155V32.8488H8.125V27.0155H11.8167ZM11.8333 34.5238C11.8333 35.8155 11.8333 37.1155 11.8333 38.4072C11.8333 39.2405 11.4333 39.6322 10.5917 39.6405H9.96667C9.725 39.6405 9.48333 39.6405 9.23333 39.6405C8.53333 39.6322 8.10833 39.2155 8.10833 38.5322C8.1 37.5155 8.10833 36.4905 8.10833 35.4572V34.2488H11.8167V34.2738C11.8333 34.3572 11.8333 34.4322 11.8333 34.5238Z"/>
</mask>
<path d="M40.95 21.4572C40.45 19.5905 39.3167 18.7238 37.4 18.7238C34.1333 18.7238 30.875 18.7238 27.6083 18.7238H27.275L27.375 18.4322C27.9167 16.7488 28.4583 14.9322 28.6833 13.0655C28.7917 12.1572 28.85 11.0905 28.375 10.0738C27.6667 8.54049 26.125 7.54883 24.4417 7.54883C24.175 7.54883 23.9 7.57383 23.6333 7.62383C21.65 7.99883 20.2167 9.71549 20.15 11.7988C20.1083 13.0572 19.7083 14.2238 18.925 15.3572C18.1417 16.4905 17.125 17.5155 15.7333 18.5738C15.1167 19.0488 14.4667 19.4988 13.8417 19.9405C13.5917 20.1155 13.3417 20.2905 13.0917 20.4655C12.4667 19.2322 11.825 18.8488 10.425 18.8488C10.2917 18.8488 10.15 18.8488 10.0167 18.8488C9.75833 18.8488 9.50833 18.8488 9.25833 18.8488C7.99167 18.8655 7.16667 19.4988 6.8 20.7155C6.79167 20.7488 6.775 20.7822 6.75833 20.8155V20.8238H5.15C4.79167 20.8238 4.44167 20.8238 4.08333 20.8322C3.05833 20.8405 2.225 21.2488 1.61667 22.0405C1.3 22.4488 1.31667 22.8405 1.65833 23.0988C1.98333 23.3488 2.375 23.2738 2.69167 22.8738C3.01667 22.4655 3.375 22.2488 3.75833 22.2405C4.13333 22.2322 4.53333 22.2238 5.025 22.2238C5.325 22.2238 5.61667 22.2238 5.91667 22.2238C6.18333 22.2238 6.45 22.2238 6.725 22.2238V37.6405H5.225C4.9 37.6405 4.56667 37.6405 4.24167 37.6405C2.99167 37.6322 2.36667 36.9905 2.36667 35.7405V34.2738C2.36667 31.3488 2.36667 28.4155 2.36667 25.4822C2.36667 25.1322 2.33333 24.7905 1.91667 24.6238C1.83333 24.5905 1.75 24.5738 1.66667 24.5738C1.38333 24.5738 1.2 24.7655 1.025 24.9822L1 25.0072V36.4655L1.06667 36.6655C1.1 36.7572 1.125 36.8405 1.15833 36.9322C1.55833 38.1322 2.61667 38.9488 3.85 38.9905C4.25 39.0072 4.68333 39.0155 5.2 39.0155C5.55 39.0155 5.9 39.0155 6.24167 39.0072H6.50833C6.71667 39.0072 6.79167 39.0405 6.85 39.2572C7.06667 40.0488 7.59167 40.5905 8.40833 40.8822C8.475 40.9072 8.54167 40.9322 8.60833 40.9572L8.68333 40.9905L11.2167 40.9988H11.2333C12.1 40.7405 12.6833 40.2655 13.0083 39.5488L13.2167 39.6655C13.4083 39.7738 13.5917 39.8738 13.775 39.9822C14.825 40.5988 15.9417 40.9072 17.1167 40.9155C19.65 40.9238 22.375 40.9238 25.0917 40.9238H33.075C33.5833 40.9238 33.8917 40.6655 33.8917 40.2405C33.8917 39.8072 33.6 39.5655 33.0833 39.5572C32.5583 39.5572 32.025 39.5572 31.5 39.5572H30.4417C26.3083 39.5572 21.4583 39.5572 17.3167 39.5572C16.2333 39.5572 15.2333 39.2822 14.3333 38.7238C14.0583 38.5572 13.7833 38.3822 13.475 38.2655C13.2667 38.1822 13.2083 38.0905 13.2083 37.8405C13.2167 35.9155 13.2167 33.9988 13.2167 32.0738V30.2988V22.2322C13.2167 22.0572 13.2167 21.9572 13.3833 21.8572C15.6333 20.4822 17.2333 19.2655 18.575 17.8905C20.5417 15.8905 21.4917 13.8988 21.5417 11.6405C21.575 10.1738 22.7333 9.02383 24.2917 8.91549C25.725 8.80716 27.0417 9.83216 27.3083 11.2072C27.4333 11.8405 27.3667 12.5238 27.3083 12.9905C27.0333 15.1488 26.375 17.1988 25.7583 18.9238C25.6167 19.3322 25.6083 19.6155 25.75 19.8072C25.8833 19.9988 26.15 20.0905 26.5667 20.0905H31.25C33.3333 20.0905 35.4083 20.0905 37.4917 20.0988C37.8333 20.0988 38.1083 20.1322 38.3417 20.2072C39.2083 20.4822 39.7667 21.3905 39.625 22.2905C39.475 23.2322 38.6917 23.9238 37.7667 23.9322C37.0667 23.9405 36.3667 23.9405 35.6667 23.9405H32.8667C32.0833 23.9405 31.9583 24.3572 31.9583 24.6072C31.9583 24.7905 32.0167 24.9488 32.125 25.0655C32.275 25.2238 32.525 25.2988 32.8417 25.2988H34.7167C35.2833 25.2988 35.85 25.2988 36.4167 25.3072C36.7 25.3072 36.9417 25.3405 37.15 25.4072C38.025 25.6822 38.5833 26.5738 38.4583 27.4738C38.325 28.4322 37.5333 29.1238 36.575 29.1322C35.9167 29.1405 35.25 29.1405 34.5917 29.1405H31.8417H31.6667C31.625 29.1405 31.575 29.1405 31.525 29.1405C31.0917 29.1572 30.7917 29.4488 30.7917 29.8322C30.8 30.2238 31.1083 30.4988 31.55 30.4988C31.8333 30.4988 32.125 30.4988 32.4083 30.4988H33.7083C34.2167 30.4988 34.725 30.4988 35.2417 30.5072C35.55 30.5072 35.8167 30.5488 36.05 30.6322C36.9 30.9238 37.4333 31.8072 37.3 32.6988C37.15 33.6405 36.3667 34.3238 35.4417 34.3405C34.6583 34.3488 33.8833 34.3488 33.1 34.3488H30.9083H30.5C29.9583 34.3488 29.6417 34.5988 29.6333 35.0238C29.6333 35.2072 29.6917 35.3655 29.8083 35.4822C29.9583 35.6322 30.1917 35.7155 30.4917 35.7155C31.2833 35.7155 32.0833 35.7155 32.875 35.7155H34.0667C35.1 35.7155 35.8333 36.2322 36.0833 37.1322C36.325 38.0238 35.9583 38.8405 35.0667 39.3655C34.6583 39.6072 34.5167 39.9822 34.7083 40.3322C34.8917 40.6822 35.2917 40.7738 35.7167 40.5655C37.025 39.9238 37.7667 38.4155 37.45 37.0572C37.35 36.6488 37.1667 36.2488 36.9917 35.8655C36.925 35.7155 36.85 35.5655 36.7917 35.4155C37.75 34.9572 38.375 34.1738 38.6083 33.1488C38.8417 32.1155 38.6 31.1405 37.875 30.2405C38.9167 29.7405 39.5417 28.9822 39.775 27.9322C40.0083 26.9238 39.775 25.9488 39.1 25.1072C39.225 24.9988 39.35 24.8905 39.475 24.7905C39.8167 24.5072 40.1333 24.2322 40.3917 23.8988C40.6 23.6238 40.7333 23.2738 40.85 22.9488C40.9 22.8072 40.95 22.6572 41.0167 22.5155L41 21.5072L40.95 21.4572ZM8.11667 24.4155C8.11667 23.3405 8.10833 22.2238 8.125 21.1322C8.13333 20.6572 8.55 20.2572 9.05 20.2405C9.65 20.2155 10.2833 20.2155 10.9 20.2405C11.3917 20.2655 11.7917 20.6322 11.8 21.0655C11.825 22.1655 11.8167 23.2988 11.8167 24.3905C11.8167 24.7905 11.8167 25.1988 11.8167 25.6072H8.11667C8.11667 25.1988 8.11667 24.8072 8.11667 24.4155ZM11.8167 27.0155V32.8488H8.125V27.0155H11.8167ZM11.8333 34.5238C11.8333 35.8155 11.8333 37.1155 11.8333 38.4072C11.8333 39.2405 11.4333 39.6322 10.5917 39.6405H9.96667C9.725 39.6405 9.48333 39.6405 9.23333 39.6405C8.53333 39.6322 8.10833 39.2155 8.10833 38.5322C8.1 37.5155 8.10833 36.4905 8.10833 35.4572V34.2488H11.8167V34.2738C11.8333 34.3572 11.8333 34.4322 11.8333 34.5238Z" fill="#666666"/>
<path d="M40.95 21.4572C40.45 19.5905 39.3167 18.7238 37.4 18.7238C34.1333 18.7238 30.875 18.7238 27.6083 18.7238H27.275L27.375 18.4322C27.9167 16.7488 28.4583 14.9322 28.6833 13.0655C28.7917 12.1572 28.85 11.0905 28.375 10.0738C27.6667 8.54049 26.125 7.54883 24.4417 7.54883C24.175 7.54883 23.9 7.57383 23.6333 7.62383C21.65 7.99883 20.2167 9.71549 20.15 11.7988C20.1083 13.0572 19.7083 14.2238 18.925 15.3572C18.1417 16.4905 17.125 17.5155 15.7333 18.5738C15.1167 19.0488 14.4667 19.4988 13.8417 19.9405C13.5917 20.1155 13.3417 20.2905 13.0917 20.4655C12.4667 19.2322 11.825 18.8488 10.425 18.8488C10.2917 18.8488 10.15 18.8488 10.0167 18.8488C9.75833 18.8488 9.50833 18.8488 9.25833 18.8488C7.99167 18.8655 7.16667 19.4988 6.8 20.7155C6.79167 20.7488 6.775 20.7822 6.75833 20.8155V20.8238H5.15C4.79167 20.8238 4.44167 20.8238 4.08333 20.8322C3.05833 20.8405 2.225 21.2488 1.61667 22.0405C1.3 22.4488 1.31667 22.8405 1.65833 23.0988C1.98333 23.3488 2.375 23.2738 2.69167 22.8738C3.01667 22.4655 3.375 22.2488 3.75833 22.2405C4.13333 22.2322 4.53333 22.2238 5.025 22.2238C5.325 22.2238 5.61667 22.2238 5.91667 22.2238C6.18333 22.2238 6.45 22.2238 6.725 22.2238V37.6405H5.225C4.9 37.6405 4.56667 37.6405 4.24167 37.6405C2.99167 37.6322 2.36667 36.9905 2.36667 35.7405V34.2738C2.36667 31.3488 2.36667 28.4155 2.36667 25.4822C2.36667 25.1322 2.33333 24.7905 1.91667 24.6238C1.83333 24.5905 1.75 24.5738 1.66667 24.5738C1.38333 24.5738 1.2 24.7655 1.025 24.9822L1 25.0072V36.4655L1.06667 36.6655C1.1 36.7572 1.125 36.8405 1.15833 36.9322C1.55833 38.1322 2.61667 38.9488 3.85 38.9905C4.25 39.0072 4.68333 39.0155 5.2 39.0155C5.55 39.0155 5.9 39.0155 6.24167 39.0072H6.50833C6.71667 39.0072 6.79167 39.0405 6.85 39.2572C7.06667 40.0488 7.59167 40.5905 8.40833 40.8822C8.475 40.9072 8.54167 40.9322 8.60833 40.9572L8.68333 40.9905L11.2167 40.9988H11.2333C12.1 40.7405 12.6833 40.2655 13.0083 39.5488L13.2167 39.6655C13.4083 39.7738 13.5917 39.8738 13.775 39.9822C14.825 40.5988 15.9417 40.9072 17.1167 40.9155C19.65 40.9238 22.375 40.9238 25.0917 40.9238H33.075C33.5833 40.9238 33.8917 40.6655 33.8917 40.2405C33.8917 39.8072 33.6 39.5655 33.0833 39.5572C32.5583 39.5572 32.025 39.5572 31.5 39.5572H30.4417C26.3083 39.5572 21.4583 39.5572 17.3167 39.5572C16.2333 39.5572 15.2333 39.2822 14.3333 38.7238C14.0583 38.5572 13.7833 38.3822 13.475 38.2655C13.2667 38.1822 13.2083 38.0905 13.2083 37.8405C13.2167 35.9155 13.2167 33.9988 13.2167 32.0738V30.2988V22.2322C13.2167 22.0572 13.2167 21.9572 13.3833 21.8572C15.6333 20.4822 17.2333 19.2655 18.575 17.8905C20.5417 15.8905 21.4917 13.8988 21.5417 11.6405C21.575 10.1738 22.7333 9.02383 24.2917 8.91549C25.725 8.80716 27.0417 9.83216 27.3083 11.2072C27.4333 11.8405 27.3667 12.5238 27.3083 12.9905C27.0333 15.1488 26.375 17.1988 25.7583 18.9238C25.6167 19.3322 25.6083 19.6155 25.75 19.8072C25.8833 19.9988 26.15 20.0905 26.5667 20.0905H31.25C33.3333 20.0905 35.4083 20.0905 37.4917 20.0988C37.8333 20.0988 38.1083 20.1322 38.3417 20.2072C39.2083 20.4822 39.7667 21.3905 39.625 22.2905C39.475 23.2322 38.6917 23.9238 37.7667 23.9322C37.0667 23.9405 36.3667 23.9405 35.6667 23.9405H32.8667C32.0833 23.9405 31.9583 24.3572 31.9583 24.6072C31.9583 24.7905 32.0167 24.9488 32.125 25.0655C32.275 25.2238 32.525 25.2988 32.8417 25.2988H34.7167C35.2833 25.2988 35.85 25.2988 36.4167 25.3072C36.7 25.3072 36.9417 25.3405 37.15 25.4072C38.025 25.6822 38.5833 26.5738 38.4583 27.4738C38.325 28.4322 37.5333 29.1238 36.575 29.1322C35.9167 29.1405 35.25 29.1405 34.5917 29.1405H31.8417H31.6667C31.625 29.1405 31.575 29.1405 31.525 29.1405C31.0917 29.1572 30.7917 29.4488 30.7917 29.8322C30.8 30.2238 31.1083 30.4988 31.55 30.4988C31.8333 30.4988 32.125 30.4988 32.4083 30.4988H33.7083C34.2167 30.4988 34.725 30.4988 35.2417 30.5072C35.55 30.5072 35.8167 30.5488 36.05 30.6322C36.9 30.9238 37.4333 31.8072 37.3 32.6988C37.15 33.6405 36.3667 34.3238 35.4417 34.3405C34.6583 34.3488 33.8833 34.3488 33.1 34.3488H30.9083H30.5C29.9583 34.3488 29.6417 34.5988 29.6333 35.0238C29.6333 35.2072 29.6917 35.3655 29.8083 35.4822C29.9583 35.6322 30.1917 35.7155 30.4917 35.7155C31.2833 35.7155 32.0833 35.7155 32.875 35.7155H34.0667C35.1 35.7155 35.8333 36.2322 36.0833 37.1322C36.325 38.0238 35.9583 38.8405 35.0667 39.3655C34.6583 39.6072 34.5167 39.9822 34.7083 40.3322C34.8917 40.6822 35.2917 40.7738 35.7167 40.5655C37.025 39.9238 37.7667 38.4155 37.45 37.0572C37.35 36.6488 37.1667 36.2488 36.9917 35.8655C36.925 35.7155 36.85 35.5655 36.7917 35.4155C37.75 34.9572 38.375 34.1738 38.6083 33.1488C38.8417 32.1155 38.6 31.1405 37.875 30.2405C38.9167 29.7405 39.5417 28.9822 39.775 27.9322C40.0083 26.9238 39.775 25.9488 39.1 25.1072C39.225 24.9988 39.35 24.8905 39.475 24.7905C39.8167 24.5072 40.1333 24.2322 40.3917 23.8988C40.6 23.6238 40.7333 23.2738 40.85 22.9488C40.9 22.8072 40.95 22.6572 41.0167 22.5155L41 21.5072L40.95 21.4572ZM8.11667 24.4155C8.11667 23.3405 8.10833 22.2238 8.125 21.1322C8.13333 20.6572 8.55 20.2572 9.05 20.2405C9.65 20.2155 10.2833 20.2155 10.9 20.2405C11.3917 20.2655 11.7917 20.6322 11.8 21.0655C11.825 22.1655 11.8167 23.2988 11.8167 24.3905C11.8167 24.7905 11.8167 25.1988 11.8167 25.6072H8.11667C8.11667 25.1988 8.11667 24.8072 8.11667 24.4155ZM11.8167 27.0155V32.8488H8.125V27.0155H11.8167ZM11.8333 34.5238C11.8333 35.8155 11.8333 37.1155 11.8333 38.4072C11.8333 39.2405 11.4333 39.6322 10.5917 39.6405H9.96667C9.725 39.6405 9.48333 39.6405 9.23333 39.6405C8.53333 39.6322 8.10833 39.2155 8.10833 38.5322C8.1 37.5155 8.10833 36.4905 8.10833 35.4572V34.2488H11.8167V34.2738C11.8333 34.3572 11.8333 34.4322 11.8333 34.5238Z" stroke="#666666" stroke-width="0.4" mask="url(#path-1-outside-1_3149_537)"/>
<path d="M14.3305 10.6103L14.3305 10.6101C13.8157 9.23742 12.8956 8.31695 11.5058 7.79367C10.875 7.5593 10.5321 6.9735 10.5408 6.23216L10.5408 6.23205C10.5496 5.5436 10.88 5.01945 11.5108 4.68656L11.5127 4.68554L11.5127 4.68556L11.5177 4.68306C11.6131 4.63536 11.7014 4.59124 11.7827 4.56394C12.963 4.13217 13.7653 3.3291 14.1799 2.16641L14.1801 2.16593C14.3995 1.5604 14.8402 1.1396 15.4914 0.91385L15.4998 0.910936L15.4999 0.911319L15.5332 0.902986L15.5451 0.9H15.5574H16.2074H16.2222L16.2364 0.904287C16.9013 1.10551 17.3742 1.56254 17.6262 2.24015L17.6265 2.2411L17.6265 2.2411C18.0239 3.34389 18.8003 4.09891 20.0094 4.55642C20.3907 4.69945 20.6911 4.91407 20.8982 5.19359C21.1056 5.47347 21.2153 5.81279 21.2241 6.19773M14.3305 10.6103L21.1241 6.2M14.3305 10.6103C14.5646 11.2315 15.1408 11.5833 15.8908 11.5833C16.2361 11.5833 16.5424 11.5023 16.805 11.3391C17.0674 11.1761 17.2808 10.9345 17.4459 10.6217L17.4461 10.6213C17.5146 10.4899 17.58 10.3493 17.643 10.2139C17.6729 10.1497 17.7022 10.0867 17.731 10.0265L17.7311 10.0265L17.7331 10.0218C17.7528 9.97455 17.7746 9.92892 17.7977 9.88065L17.7982 9.87961C17.8204 9.83306 17.8439 9.78399 17.8654 9.73248M14.3305 10.6103L17.6408 9.98333C17.6616 9.93333 17.6845 9.88542 17.7074 9.8375C17.7304 9.78958 17.7533 9.74167 17.7741 9.69167M21.2241 6.19773L21.1241 6.2M21.2241 6.19773C21.2241 6.19765 21.2241 6.19758 21.2241 6.1975L21.1241 6.2M21.2241 6.19773C21.2328 6.5466 21.1608 6.85702 21.0054 7.12423C20.85 7.39142 20.6146 7.60959 20.3056 7.77931L20.3051 7.7796C20.1015 7.88987 19.8819 7.99116 19.6727 8.0832L19.6709 8.08399L19.6709 8.08397C19.6237 8.10366 19.578 8.12546 19.5298 8.14855L19.5288 8.14901C19.4823 8.17125 19.4333 8.1947 19.3818 8.21623M21.1241 6.2C21.1408 6.86667 20.8491 7.36667 20.2574 7.69167C20.0574 7.8 19.8408 7.9 19.6324 7.99167C19.5824 8.0125 19.5345 8.03542 19.4866 8.05833C19.4387 8.08125 19.3908 8.10417 19.3408 8.125M19.3818 8.21623C19.3826 8.21584 19.3834 8.21546 19.3842 8.21507L19.3408 8.125M19.3818 8.21623C19.381 8.21659 19.3801 8.21695 19.3792 8.21731L19.3408 8.125M19.3818 8.21623C18.6956 8.54782 18.1885 9.05525 17.8654 9.73248M19.3408 8.125C18.6324 8.46667 18.1074 8.99167 17.7741 9.69167M17.7741 9.69167L17.8664 9.73013C17.8661 9.73091 17.8658 9.73169 17.8654 9.73248M17.7741 9.69167L17.8644 9.73466C17.8647 9.73393 17.8651 9.7332 17.8654 9.73248M16.1491 2.56667L16.0619 2.61553C16.1519 2.77638 16.2263 2.94667 16.304 3.12436C16.3243 3.17085 16.3448 3.21784 16.3659 3.26531C16.8677 4.41327 17.7274 5.26417 18.9151 5.78231C18.9677 5.80846 19.0125 5.8264 19.0642 5.84376C19.2067 5.90247 19.3358 5.95634 19.4405 6.03101C19.4962 6.07192 19.5454 6.11965 19.5796 6.16359C19.5968 6.18561 19.6089 6.20496 19.6163 6.22047C19.6226 6.2336 19.6238 6.24042 19.6241 6.24174C19.6238 6.24321 19.6225 6.25079 19.6158 6.26538C19.6082 6.2819 19.5961 6.30218 19.5793 6.32463C19.5459 6.36949 19.4994 6.41606 19.45 6.45145C19.3265 6.53622 19.1855 6.59943 19.0203 6.66549L18.8953 6.71549L18.8953 6.71545L18.8926 6.71663C17.7191 7.22683 16.8675 8.08712 16.3575 9.25155L16.3575 9.25154L16.3568 9.2532L16.3155 9.35227C16.3155 9.35243 16.3154 9.35258 16.3153 9.35273C16.2401 9.52822 16.1678 9.69654 16.0722 9.85606C16.041 9.90564 15.9883 9.95378 15.9063 10.0195C15.9012 10.023 15.8962 10.0267 15.8914 10.0304C15.8849 10.0259 15.8788 10.0218 15.8731 10.018L15.8722 10.0174C15.7952 9.96347 15.7447 9.91977 15.7027 9.87131C15.6474 9.79412 15.6036 9.68761 15.5466 9.54923L15.5422 9.53835C15.5421 9.53811 15.542 9.53787 15.5419 9.53764C14.9899 8.13706 13.9947 7.14227 12.5865 6.57394L12.5863 6.57382C12.5418 6.55605 12.4895 6.53861 12.4408 6.52238L12.4391 6.5218C12.3113 6.47922 12.2288 6.4465 12.1763 6.40432C12.1331 6.36966 12.1074 6.32645 12.1074 6.24167C12.1074 6.15708 12.1331 6.11337 12.177 6.0774C12.2304 6.03375 12.3134 5.99931 12.4419 5.95222L12.4419 5.95226L12.4446 5.95118C12.4637 5.94355 12.485 5.93577 12.5083 5.92731L12.5091 5.92702C12.5314 5.91889 12.5556 5.91011 12.5779 5.90118L12.5785 5.90095C13.9947 5.32428 14.9903 4.32943 15.5339 2.93635L15.5341 2.9359C15.573 2.8348 15.628 2.7241 15.6849 2.61832C15.7216 2.56384 15.7594 2.52237 15.7951 2.49521C15.8317 2.46735 15.8609 2.45833 15.8824 2.45833C15.9274 2.45833 15.9929 2.49284 16.062 2.61569L16.1491 2.56667ZM16.1491 2.56667C16.2418 2.73225 16.3188 2.90836 16.3967 3.08664C16.4168 3.13266 16.4369 3.17883 16.4574 3.225C16.9491 4.35 17.7908 5.18333 18.9574 5.69167L16.1491 2.56667Z" fill="#666666" stroke="#666666" stroke-width="0.2"/>
<path d="M31.4321 14.6106L31.4311 14.6103C30.8522 14.3876 30.5176 13.9183 30.517 13.2852C30.4997 12.7147 30.7532 12.2728 31.2508 11.9884L31.2556 11.9857L31.2557 11.9858C31.2779 11.9747 31.3029 11.9614 31.3302 11.947C31.4144 11.9023 31.5204 11.8461 31.633 11.8062C32.2798 11.5665 32.7175 11.1297 32.9825 10.4633L32.9827 10.4626C33.0932 10.1906 33.2239 9.95278 33.3943 9.77329C33.6636 9.4862 34.0234 9.33359 34.417 9.33359C34.9261 9.33359 35.3833 9.5843 35.6518 10.0139L35.6532 10.016L35.6531 10.0161C35.7519 10.1832 35.8305 10.3571 35.9042 10.5202C35.9139 10.5416 35.9235 10.5629 35.9331 10.5839L35.935 10.5881L35.9349 10.5881L35.9674 10.6694C36.1908 11.1629 36.5309 11.5023 37.0236 11.7169C37.0236 11.7169 37.0236 11.7169 37.0236 11.7169L31.4321 14.6106ZM31.4321 14.6106C32.2556 14.9174 32.7827 15.4459 33.0558 16.2411L33.0557 16.2411M31.4321 14.6106L33.0557 16.2411M33.0557 16.2411L33.0575 16.2457M33.0557 16.2411L33.0575 16.2457M33.0575 16.2457C33.0938 16.3364 33.1387 16.4169 33.1822 16.4866L33.1823 16.4867M33.0575 16.2457L33.1823 16.4867M33.1823 16.4867C33.4674 16.9411 33.8912 17.1753 34.4337 17.1753L34.4354 17.1752M33.1823 16.4867L34.4354 17.1752M34.4354 17.1752C34.9612 17.1663 35.3848 16.9233 35.6528 16.4767C35.7555 16.3056 35.8494 16.1177 35.9263 15.9298L35.9266 15.9291M34.4354 17.1752L35.9266 15.9291M35.9266 15.9291C36.1494 15.3721 36.5371 14.9914 37.1049 14.7595L37.1049 14.7595M35.9266 15.9291L37.1049 14.7595M37.1049 14.7595C37.2922 14.6828 37.4459 14.6061 37.5825 14.5292M37.1049 14.7595L37.5825 14.5292M37.5825 14.5292C38.0793 14.2541 38.3507 13.8128 38.342 13.2411C38.3418 12.6863 38.07 12.2456 37.5651 11.9709L37.5825 14.5292ZM32.3412 13.2585C33.2904 12.8006 33.9746 12.1103 34.4192 11.1732C34.8879 12.1211 35.5697 12.8116 36.492 13.2514C35.5512 13.7081 34.8681 14.3907 34.4174 15.3252C33.9727 14.397 33.2889 13.7149 32.3412 13.2585Z" fill="#666666" stroke="#666666" stroke-width="0.2"/>
<path d="M22.4493 29.6909V29.6909H22.4503H22.4586C22.9417 29.6909 23.5153 29.417 23.9452 28.9875C24.1363 28.805 24.242 28.5719 24.242 28.3493C24.242 28.1467 24.1641 27.9644 24.0232 27.8142L24.023 27.814C23.8694 27.651 23.6849 27.5651 23.4832 27.5701C23.2845 27.575 23.0841 27.6678 22.8938 27.8315C22.6333 28.0512 22.436 28.1425 22.2507 28.1399C22.0644 28.1373 21.8641 28.0395 21.5984 27.8147C21.4135 27.657 21.208 27.5722 21.0055 27.5722C20.8016 27.5722 20.6111 27.6583 20.4603 27.8229C20.3059 27.9869 20.2319 28.1842 20.2453 28.3881C20.2587 28.5909 20.3577 28.7896 20.5293 28.9613C21.0184 29.459 21.6208 29.6824 22.4493 29.6909Z" fill="#666666" stroke="#666666" stroke-width="0.2"/>
<path d="M26.9407 26.7187L26.9407 26.7187L26.9402 26.7186C26.7254 26.7049 26.5357 26.7548 26.3921 26.8638C26.2477 26.9733 26.1584 27.1361 26.1346 27.3309C26.0835 27.7225 26.0835 28.1477 26.1346 28.5314C26.1584 28.716 26.24 28.8729 26.3702 28.9833C26.5002 29.0934 26.672 29.1518 26.8671 29.1518H26.8672H26.8673H26.8674H26.8675H26.8676H26.8677H26.8678H26.8679H26.868H26.8681H26.8682H26.8683H26.8684H26.8685H26.8686H26.8687H26.8688H26.8689H26.869H26.8691H26.8692H26.8693H26.8694H26.8695H26.8696H26.8697H26.8698H26.8699H26.87H26.8701H26.8702H26.8703H26.8704H26.8705H26.8707H26.8708H26.8709H26.871H26.8711H26.8712H26.8713H26.8714H26.8715H26.8716H26.8717H26.8718H26.8719H26.872H26.8721H26.8722H26.8723H26.8724H26.8725H26.8727H26.8728H26.8729H26.873H26.8731H26.8732H26.8733H26.8734H26.8735H26.8736H26.8737H26.8738H26.8739H26.8741H26.8742H26.8743H26.8744H26.8745H26.8746H26.8747H26.8748H26.8749H26.875H26.8752H26.8753H26.8754H26.8755H26.8756H26.8757H26.8758H26.8759H26.876H26.8761H26.8763H26.8764H26.8765H26.8766H26.8767H26.8768H26.8769H26.877H26.8772H26.8773H26.8774H26.8775H26.8776H26.8777H26.8778H26.8779H26.8781H26.8782H26.8783H26.8784H26.8785H26.8786H26.8787H26.8789H26.879H26.8791H26.8792H26.8793H26.8794H26.8795H26.8797H26.8798H26.8799H26.88H26.8801H26.8802H26.8803H26.8805H26.8806H26.8807H26.8808H26.8809H26.881H26.8812H26.8813H26.8814H26.8815H26.8816H26.8817H26.8819H26.882H26.8821H26.8822H26.8823H26.8824H26.8826H26.8827H26.8828H26.8829H26.883H26.8831H26.8833H26.8834H26.8835H26.8836H26.8837H26.8839H26.884H26.8841H26.8842H26.8843H26.8844H26.8846H26.8847H26.8848H26.8849H26.885H26.8852H26.8853H26.8854H26.8855H26.8856H26.8858H26.8859H26.886H26.8861H26.8862H26.8863H26.8865H26.8866H26.8867H26.8868H26.8869H26.8871H26.8872H26.8873H26.8874H26.8875H26.8877H26.8878H26.8879H26.888H26.8881H26.8883H26.8884H26.8885H26.8886H26.8888H26.8889H26.889H26.8891H26.8892H26.8894H26.8895H26.8896H26.8897H26.8898H26.89H26.8901H26.8902H26.8903H26.8904H26.8906H26.8907H26.8908H26.8909H26.891H26.8912H26.8913H26.8914H26.8915H26.8917H26.8918H26.8919H26.892H26.8921H26.8923H26.8924H26.8925H26.8926H26.8928H26.8929H26.893H26.8931H26.8932H26.8934H26.8935H26.8936H26.8937H26.8938H26.894H26.8941H26.8942H26.8943H26.8945H26.8946H26.8947H26.8948H26.8949H26.8951H26.8952H26.8953H26.8954H26.8956H26.8957H26.8958H26.8959H26.896H26.8962H26.8963H26.8964H26.8965H26.8967H26.8968H26.8969H26.897H26.8971H26.8973H26.8974H26.8975H26.8976H26.8978H26.8979H26.898H26.8981H26.8982H26.8984H26.8985H26.8986H26.8987H26.8989H26.899H26.8991H26.8992H26.8993H26.8995H26.8996H26.8997H26.8998H26.8999H26.9001H26.9002H26.9003H26.9004H26.9006H26.9007H26.9008H26.9009H26.901H26.9012H26.9013H26.9014H26.9015H26.9016H26.9018H26.9019H26.902H26.9021H26.9023H26.9024H26.9025H26.9026H26.9027H26.9029H26.903H26.9031H26.9032H26.9033H26.9035H26.9036H26.9037H26.9038H26.9039H26.9041H26.9042H26.9043H26.9044H26.9046H26.9047H26.9048H26.9049H26.905H26.9052H26.9053H26.9054H26.9055H26.9056H26.9058H26.9059H26.906H26.9061H26.9062H26.9063H26.9065H26.9066H26.9067H26.9068H26.9069H26.9071H26.9072H26.9073H26.9074H26.9075H26.9077H26.9078H26.9079H26.908H26.9081H26.9083H26.9084H26.9085H26.9086H26.9087H26.9088H26.909H26.9091H26.9092H26.9093H26.9094H26.9096H26.9097H26.9098H26.9099H26.91H26.9101H26.9103H26.9104H26.9105H26.9106H26.9107H26.9108H26.911H26.9111H26.9112H26.9113H26.9114H26.9115H26.9117H26.9118H26.9119H26.912H26.9121H26.9122H26.9123H26.9125H26.9126H26.9127H26.9128H26.9129H26.913H26.9132H26.9133H26.9134H26.9135H26.9136H26.9137H26.9138H26.914H26.9141H26.9142H26.9143H26.9144H26.9145H26.9146H26.9147H26.9149H26.915H26.9151H26.9152H26.9153H26.9154H26.9155H26.9156H26.9158H26.9159H26.916H26.9161H26.9162H26.9163H26.9164H26.9165H26.9167H26.9168H26.9169H26.917H26.9171H26.9172H26.9173H26.9174H26.9175H26.9176H26.9178H26.9179H26.918H26.9181H26.9182H26.9183H26.9184H26.9185H26.9186H26.9187H26.9188H26.919H26.9191H26.9192H26.9193H26.9194H26.9195H26.9196H26.9197H26.9198H26.9199H26.92H26.9201H26.9202H26.9203H26.9205H26.9206H26.9207H26.9208H26.9209H26.921H26.9211H26.9212H26.9213H26.9214H26.9215H26.9216H26.9217H26.9218H26.9219H26.922H26.9221H26.9222H26.9223H26.9224H26.9225H26.9226H26.9228H26.9229H26.923H26.9231H26.9232H26.9233H26.9234H26.9235H26.9236H26.9237H26.9238H26.9239H26.924H26.9241H26.9242H26.9243H26.9244H26.9245H26.9246H26.9247H26.9248H26.9249H26.925H26.9251H26.9252H26.9253H26.9254H26.9255V29.152L26.9321 29.1515C27.1385 29.1378 27.3134 29.068 27.4413 28.9388C27.5689 28.8099 27.6403 28.6317 27.6584 28.4186L27.6584 28.4186L27.6585 28.4178C27.6671 28.3056 27.6672 28.1934 27.6588 28.0813V28.0813V28.081V28.0807V28.0804V28.0801V28.0798V28.0795V28.0792V28.0789V28.0787V28.0784V28.0781V28.0778V28.0775V28.0772V28.0769V28.0766V28.0763V28.076V28.0757V28.0754V28.0751V28.0748V28.0746V28.0743V28.074V28.0737V28.0734V28.0731V28.0728V28.0725V28.0722V28.0719V28.0716V28.0713V28.071V28.0707V28.0705V28.0702V28.0699V28.0696V28.0693V28.069V28.0687V28.0684V28.0681V28.0678V28.0675V28.0672V28.0669V28.0667V28.0664V28.0661V28.0658V28.0655V28.0652V28.0649V28.0646V28.0643V28.064V28.0637V28.0634V28.0632V28.0629V28.0626V28.0623V28.062V28.0617V28.0614V28.0611V28.0608V28.0605V28.0602V28.0599V28.0597V28.0594V28.0591V28.0588V28.0585V28.0582V28.0579V28.0576V28.0573V28.057V28.0567V28.0564V28.0562V28.0559V28.0556V28.0553V28.055V28.0547V28.0544V28.0541V28.0538V28.0535V28.0532V28.053V28.0527V28.0524V28.0521V28.0518V28.0515V28.0512V28.0509V28.0506V28.0503V28.05V28.0498V28.0495V28.0492V28.0489V28.0486V28.0483V28.048V28.0477V28.0474V28.0471V28.0469V28.0466V28.0463V28.046V28.0457V28.0454V28.0451V28.0448V28.0445V28.0443V28.044V28.0437V28.0434V28.0431V28.0428V28.0425V28.0422V28.0419V28.0417V28.0414V28.0411V28.0408V28.0405V28.0402V28.0399V28.0396V28.0393V28.0391V28.0388V28.0385V28.0382V28.0379V28.0376V28.0373V28.037V28.0367V28.0365V28.0362V28.0359V28.0356V28.0353V28.035V28.0347V28.0344V28.0342V28.0339V28.0336V28.0333V28.033V28.0327V28.0324V28.0322V28.0319V28.0316V28.0313V28.031V28.0307V28.0304V28.0301V28.0299V28.0296V28.0293V28.029V28.0287V28.0284V28.0281V28.0279V28.0276V28.0273V28.027V28.0267V28.0264V28.0261V28.0259V28.0256V28.0253V28.025V28.0247V28.0244V28.0242V28.0239V28.0236V28.0233V28.023V28.0227V28.0224V28.0222V28.0219V28.0216V28.0213V28.021V28.0207V28.0205V28.0202V28.0199V28.0196V28.0193V28.019V28.0188V28.0185V28.0182V28.0179V28.0176V28.0173V28.0171V28.0168V28.0165V28.0162V28.0159V28.0156V28.0154V28.0151V28.0148V28.0145V28.0142V28.014V28.0137V28.0134V28.0131V28.0128V28.0125V28.0123V28.012V28.0117V28.0114V28.0111V28.0109V28.0106V28.0103V28.01V28.0097V28.0095V28.0092V28.0089V28.0086V28.0083V28.0081V28.0078V28.0075V28.0072V28.0069V28.0067V28.0064V28.0061V28.0058V28.0055V28.0053V28.005V28.0047V28.0044V28.0042V28.0039V28.0036V28.0033V28.003V28.0028V28.0025V28.0022V28.0019V28.0017V28.0014V28.0011V28.0008V28.0005V28.0003V28V27.9997V27.9994V27.9992V27.9989V27.9986V27.9983V27.9981V27.9978V27.9975V27.9972V27.997V27.9967V27.9964V27.9961V27.9959V27.9956V27.9953V27.995V27.9948V27.9945V27.9942V27.9939V27.9937V27.9934V27.9931V27.9928V27.9926V27.9923V27.992V27.9917V27.9915V27.9912V27.9909V27.9907V27.9904V27.9901V27.9898V27.9896V27.9893V27.989V27.9887V27.9885V27.9882V27.9879V27.9877V27.9874V27.9871V27.9868V27.9866V27.9863V27.986V27.9858V27.9855V27.9852V27.985V27.9847V27.9844V27.9841V27.9839V27.9836V27.9833V27.9831V27.9828V27.9825V27.9823V27.982V27.9817V27.9815V27.9812V27.9809V27.9806V27.9804V27.9801V27.9798V27.9796V27.9793V27.979V27.9788V27.9785V27.9782V27.978V27.9777V27.9774V27.9772V27.9769V27.9766V27.9764V27.9761V27.9758V27.9756V27.9753V27.9751V27.9748V27.9745V27.9743V27.974V27.9737V27.9735V27.9732V27.9729V27.9727V27.9724V27.9721V27.9719V27.9716V27.9714V27.9711V27.9708V27.9706V27.9703V27.97V27.9698V27.9695V27.9693V27.969V27.9687V27.9685V27.9682V27.968V27.9677V27.9674V27.9672V27.9669V27.9667V27.9664V27.9661V27.9659V27.9656V27.9654V27.9651V27.9648V27.9646V27.9643V27.9641V27.9638V27.9635V27.9633V27.963V27.9628V27.9625V27.9623V27.962V27.9617V27.9615V27.9612V27.961V27.9607V27.9605V27.9602V27.9599V27.9597V27.9594V27.9592V27.9589V27.9587V27.9584V27.9582V27.9579V27.9576V27.9574V27.9571V27.9569V27.9566V27.9564V27.9561V27.9559V27.9556V27.9554V27.9551V27.9549V27.9546V27.9544V27.9541V27.9539V27.9536V27.9533V27.9531V27.9528V27.9526V27.9523V27.9521V27.9518V27.9516V27.9513V27.9511V27.9508V27.9506V27.9503V27.9501V27.9498V27.9496V27.9493V27.9491V27.9488V27.9486V27.9484V27.9481V27.9479V27.9476V27.9474V27.9471V27.9469V27.9466V27.9464V27.9461V27.9459V27.9456V27.9454V27.9451V27.9449V27.9447V27.9444V27.9442V27.9439V27.9437V27.9434V27.8601V27.86V27.8598V27.8597V27.8595V27.8594V27.8592V27.8591V27.8589V27.8588V27.8586V27.8585V27.8583V27.8582V27.858V27.8579V27.8578V27.8576V27.8575V27.8573V27.8572V27.857V27.8569V27.8567V27.8566V27.8564V27.8563V27.8561V27.856V27.8558V27.8557V27.8556V27.8554V27.8553V27.8551V27.855V27.8548V27.8547V27.8545V27.8544V27.8542V27.8541V27.8539V27.8538V27.8537V27.8535V27.8534V27.8532V27.8531V27.8529V27.8528V27.8526V27.8525V27.8523V27.8522V27.852V27.8519V27.8517V27.8516V27.8515V27.8513V27.8512V27.851V27.8509V27.8507V27.8506V27.8504V27.8503V27.8501V27.85V27.8498V27.8497V27.8496V27.8494V27.8493V27.8491V27.849V27.8488V27.8487V27.8485V27.8484V27.8482V27.8481V27.8479V27.8478V27.8476V27.8475V27.8474V27.8472V27.8471V27.8469V27.8468V27.8466V27.8465V27.8463V27.8462V27.846V27.8459V27.8457V27.8456V27.8454V27.8453V27.8452V27.845V27.8449V27.8447V27.8446V27.8444V27.8443V27.8441V27.844V27.8438V27.8437V27.8435V27.8434V27.8433V27.8431V27.843V27.8428V27.8427V27.8425V27.8424V27.8422V27.8421V27.8419V27.8418V27.8416V27.8415V27.8413V27.8412V27.8411V27.8409V27.8408V27.8406V27.8405V27.8403V27.8402V27.84V27.8399V27.8397V27.8396V27.8394V27.8393V27.8392V27.839V27.8389V27.8387V27.8386V27.8384V27.8383V27.8381V27.838V27.8378V27.8377V27.8375V27.8374V27.8372V27.8371V27.837V27.8368V27.8367V27.8365V27.8364V27.8362V27.8361V27.8359V27.8358V27.8356V27.8355V27.8353V27.8352V27.835V27.8349V27.8348V27.8346V27.8345V27.8343V27.8342V27.834V27.8339V27.8337V27.8336V27.8334V27.8333V27.8331V27.833V27.8329V27.8327V27.8326V27.8324V27.8323V27.8321V27.832V27.8318V27.8317V27.8315V27.8314V27.8312V27.8311V27.8309V27.8308V27.8307V27.8305V27.8304V27.8302V27.8301V27.8299V27.8298V27.8296V27.8295V27.8293V27.8292V27.829V27.8289V27.8287V27.8286V27.8285V27.8283V27.8282V27.828V27.8279V27.8277V27.8276V27.8274V27.8273V27.8271V27.827V27.8268V27.8267V27.8266V27.8264V27.8263V27.8261V27.826V27.8258V27.8257V27.8255V27.8254V27.8252V27.8251V27.8249V27.8248V27.8246V27.8245V27.8244V27.8242V27.8241V27.8239V27.8238V27.8236V27.8235V27.8233V27.8232V27.823V27.8229V27.8227V27.8226V27.8225V27.8223V27.8222V27.822V27.8219V27.8217V27.8216V27.8214V27.8213V27.8211V27.821V27.8208V27.8207V27.8205V27.8204V27.8203V27.8201V27.82V27.8198V27.8197V27.8195V27.8194V27.8192V27.8191V27.8189V27.8188V27.8186V27.8185V27.8183V27.8182V27.8181V27.8179V27.8178V27.8176V27.8175V27.8173V27.8172V27.817V27.8169V27.8167V27.8166V27.8164V27.8163V27.8162V27.816V27.8159V27.8157V27.8156V27.8154V27.8153V27.8151V27.815V27.8148V27.8147V27.8145V27.8144V27.8142V27.8141V27.814V27.8138V27.8137V27.8135V27.8134V27.8132V27.8131V27.8129V27.8128V27.8126V27.8125V27.8123V27.8122V27.8121V27.8119V27.8118V27.8116V27.8115V27.8113V27.8112V27.811V27.8109V27.8107V27.8106V27.8104V27.8103V27.8101V27.81V27.8099V27.8097V27.8096V27.8094V27.8093V27.8091V27.809V27.8088V27.8087V27.8085V27.8084V27.8082V27.8081V27.8079V27.8078V27.8077V27.8075V27.8074V27.8072V27.8071V27.8069V27.8068V27.8066V27.8065V27.8063V27.8062V27.806V27.8059V27.8058V27.8056V27.8055V27.8053V27.8052V27.805V27.8049V27.8047V27.8046V27.8044V27.8043V27.8041V27.804V27.8038V27.8037V27.8036V27.8034V27.8033V27.8031V27.803V27.8028V27.8027V27.8025V27.8024V27.8022V27.8021V27.8019V27.8018V27.8017V27.8015V27.8014V27.8012V27.8011V27.8009V27.8008V27.8006V27.8005V27.8003V27.8002V27.8V27.7999V27.7997V27.7996V27.7995V27.7993V27.7992V27.799V27.7989V27.7987V27.7986V27.7984V27.7983V27.7981V27.798V27.7978V27.7977V27.7975V27.7974V27.7973V27.7971V27.797V27.7968V27.7967V27.7965V27.7964V27.7962V27.7961V27.7959V27.7958V27.7956V27.7955V27.7954V27.7952V27.7951V27.7949V27.7948V27.7946V27.7945V27.7943V27.7942V27.794V27.7939V27.7937V27.7936V27.7934V27.7933V27.7932V27.793V27.7929V27.7927V27.7926V27.7924V27.7923V27.7921V27.792V27.7918V27.7917V27.7915V27.7914V27.7912V27.7911V27.791V27.7908V27.7907V27.7905V27.7904V27.7902V27.7901V27.7899V27.7898V27.7896V27.7895V27.7893V27.7892V27.7891V27.7889V27.7888V27.7886C27.6672 27.6688 27.6672 27.5468 27.6498 27.4155C27.6311 27.2182 27.5587 27.0497 27.4344 26.9265C27.3094 26.8028 27.1397 26.7326 26.9407 26.7187Z" fill="#666666" stroke="#666666" stroke-width="0.2"/>
<path d="M18.4001 27.4598L18.4001 27.4598L18.4 27.4581C18.3627 27.0388 18.0509 26.7086 17.6253 26.7086C17.2056 26.7086 16.8703 27.025 16.8505 27.4527C16.8252 27.7999 16.8338 28.1293 16.8505 28.4472L16.8505 28.4472L16.8506 28.4489C16.8793 28.86 17.2065 29.1586 17.6087 29.1586H17.6088H17.6089H17.609H17.6091H17.6092H17.6093H17.6094H17.6095H17.6096H17.6097H17.6098H17.6099H17.61H17.6101H17.6102H17.6103H17.6104H17.6105H17.6106H17.6107H17.6108H17.6109H17.611H17.6111H17.6112H17.6113H17.6114H17.6115H17.6116H17.6117H17.6118H17.6119H17.612H17.6121H17.6122H17.6123H17.6124H17.6125H17.6126H17.6127H17.6128H17.6129H17.613H17.6132H17.6133H17.6134H17.6135H17.6136H17.6137H17.6138H17.6139H17.614H17.6141H17.6142H17.6143H17.6144H17.6145H17.6146H17.6148H17.6149H17.615H17.6151H17.6152H17.6153H17.6154H17.6155H17.6156H17.6157H17.6158H17.6159H17.6161H17.6162H17.6163H17.6164H17.6165H17.6166H17.6167H17.6168H17.6169H17.617H17.6172H17.6173H17.6174H17.6175H17.6176H17.6177H17.6178H17.6179H17.618H17.6182H17.6183H17.6184H17.6185H17.6186H17.6187H17.6188H17.6189H17.6191H17.6192H17.6193H17.6194H17.6195H17.6196H17.6197H17.6198H17.62H17.6201H17.6202H17.6203H17.6204H17.6205H17.6206H17.6208H17.6209H17.621H17.6211H17.6212H17.6213H17.6214H17.6216H17.6217H17.6218H17.6219H17.622H17.6221H17.6223H17.6224H17.6225H17.6226H17.6227H17.6228H17.6229H17.6231H17.6232H17.6233H17.6234H17.6235H17.6236H17.6238H17.6239H17.624H17.6241H17.6242H17.6244H17.6245H17.6246H17.6247H17.6248H17.6249H17.6251H17.6252H17.6253H17.6254H17.6255H17.6256H17.6258H17.6259H17.626H17.6261H17.6262H17.6264H17.6265H17.6266H17.6267H17.6268H17.627H17.6271H17.6272H17.6273H17.6274H17.6275H17.6277H17.6278H17.6279H17.628H17.6281H17.6283H17.6284H17.6285H17.6286H17.6287H17.6289H17.629H17.6291H17.6292H17.6293H17.6295H17.6296H17.6297H17.6298H17.6299H17.6301H17.6302H17.6303H17.6304H17.6306H17.6307H17.6308H17.6309H17.631H17.6312H17.6313H17.6314H17.6315H17.6316H17.6318H17.6319H17.632H17.6321H17.6322H17.6324H17.6325H17.6326H17.6327H17.6329H17.633H17.6331H17.6332H17.6333H17.6335H17.6336H17.6337H17.6338H17.6339H17.6341H17.6342H17.6343H17.6344H17.6346H17.6347H17.6348H17.6349H17.635H17.6352H17.6353H17.6354H17.6355H17.6357H17.6358H17.6359H17.636H17.6361H17.6363H17.6364H17.6365H17.6366H17.6368H17.6369H17.637H17.6371H17.6372H17.6374H17.6375H17.6376H17.6377H17.6378H17.638H17.6381H17.6382H17.6383H17.6385H17.6386H17.6387H17.6388H17.6389H17.6391H17.6392H17.6393H17.6394H17.6396H17.6397H17.6398H17.6399H17.64H17.6402H17.6403H17.6404H17.6405H17.6407H17.6408H17.6409H17.641H17.6411H17.6413H17.6414H17.6415H17.6416H17.6418H17.6419H17.642H17.6421H17.6422H17.6424H17.6425H17.6426H17.6427H17.6428H17.643H17.6431H17.6432H17.6433H17.6435H17.6436H17.6437H17.6438H17.6439H17.6441H17.6442H17.6443H17.6444H17.6445H17.6447H17.6448H17.6449H17.645H17.6451H17.6453H17.6454H17.6455H17.6456H17.6457H17.6459H17.646H17.6461H17.6462H17.6464H17.6465H17.6466H17.6467H17.6468H17.647H17.6471H17.6472H17.6473H17.6474H17.6476H17.6477H17.6478H17.6479H17.648H17.6481H17.6483H17.6484H17.6485H17.6486H17.6487H17.6489H17.649H17.6491H17.6492H17.6493H17.6495H17.6496H17.6497H17.6498H17.6499H17.6501H17.6502H17.6503H17.6504H17.6505H17.6506H17.6508H17.6509H17.651H17.6511H17.6512H17.6513H17.6515H17.6516H17.6517H17.6518H17.6519H17.652H17.6522H17.6523H17.6524H17.6525H17.6526H17.6527H17.6529H17.653H17.6531H17.6532H17.6533H17.6534H17.6536H17.6537H17.6538H17.6539H17.654H17.6541H17.6543H17.6544H17.6545H17.6546H17.6547H17.6548H17.6549H17.6551H17.6552H17.6553H17.6554H17.6555H17.6556H17.6557H17.6559H17.656H17.6561H17.6562H17.6563H17.6564H17.6565H17.6566H17.6568H17.6569H17.657H17.6571H17.6572H17.6573H17.6574H17.6575H17.6577H17.6578H17.6579H17.658H17.6581H17.6582H17.6583H17.6584H17.6585H17.6587H17.6588H17.6589H17.659H17.6591H17.6592H17.6593H17.6594H17.6595H17.6596H17.6598H17.6599H17.66H17.6601H17.6602H17.6603H17.6604H17.6605H17.6606H17.6607H17.6608H17.6609H17.6611H17.6612H17.6613H17.6614H17.6615H17.6616H17.6617H17.6618H17.6619H17.662H17.6621H17.6622H17.6623H17.6624H17.6625H17.6627H17.6628H17.6629H17.663H17.6631H17.6632H17.6633H17.6634H17.6635H17.6636H17.6637H17.6638H17.6639H17.664H17.6641H17.6642H17.6643H17.6644H17.6645H17.6646H17.6647H17.6648H17.6649H17.665H17.6651H17.6652H17.6653H17.6654H17.6655H17.6656H17.6657H17.6658H17.6659H17.666H17.6661H17.6662H17.6663H17.6664H17.6665H17.6666H17.6667H17.6668H17.6669H17.667V29.159L17.6759 29.1582C17.8816 29.1399 18.0553 29.068 18.1825 28.9408C18.3097 28.8136 18.3817 28.6399 18.4 28.4341L18.4 28.4341L18.4001 28.4329C18.4087 28.3208 18.4087 28.2009 18.4087 28.0938V28.0919V28.0916V28.0913V28.091V28.0908V28.0905V28.0902V28.0899V28.0896V28.0893V28.089V28.0887V28.0884V28.0881V28.0878V28.0876V28.0873V28.087V28.0867V28.0864V28.0861V28.0858V28.0855V28.0852V28.0849V28.0847V28.0844V28.0841V28.0838V28.0835V28.0832V28.0829V28.0826V28.0824V28.0821V28.0818V28.0815V28.0812V28.0809V28.0806V28.0804V28.0801V28.0798V28.0795V28.0792V28.0789V28.0786V28.0784V28.0781V28.0778V28.0775V28.0772V28.0769V28.0766V28.0764V28.0761V28.0758V28.0755V28.0752V28.0749V28.0747V28.0744V28.0741V28.0738V28.0735V28.0733V28.073V28.0727V28.0724V28.0721V28.0718V28.0716V28.0713V28.071V28.0707V28.0704V28.0702V28.0699V28.0696V28.0693V28.069V28.0688V28.0685V28.0682V28.0679V28.0676V28.0674V28.0671V28.0668V28.0665V28.0662V28.066V28.0657V28.0654V28.0651V28.0648V28.0646V28.0643V28.064V28.0637V28.0635V28.0632V28.0629V28.0626V28.0623V28.0621V28.0618V28.0615V28.0612V28.061V28.0607V28.0604V28.0601V28.0599V28.0596V28.0593V28.059V28.0588V28.0585V28.0582V28.0579V28.0577V28.0574V28.0571V28.0568V28.0566V28.0563V28.056V28.0557V28.0555V28.0552V28.0549V28.0546V28.0544V28.0541V28.0538V28.0535V28.0533V28.053V28.0527V28.0524V28.0522V28.0519V28.0516V28.0513V28.0511V28.0508V28.0505V28.0503V28.05V28.0497V28.0494V28.0492V28.0489V28.0486V28.0483V28.0481V28.0478V28.0475V28.0473V28.047V28.0467V28.0464V28.0462V28.0459V28.0456V28.0454V28.0451V28.0448V28.0445V28.0443V28.044V28.0437V28.0435V28.0432V28.0429V28.0426V28.0424V28.0421V28.0418V28.0416V28.0413V28.041V28.0407V28.0405V28.0402V28.0399V28.0397V28.0394V28.0391V28.0389V28.0386V28.0383V28.038V28.0378V28.0375V28.0372V28.037V28.0367V28.0364V28.0362V28.0359V28.0356V28.0353V28.0351V28.0348V28.0345V28.0343V28.034V28.0337V28.0335V28.0332V28.0329V28.0327V28.0324V28.0321V28.0318V28.0316V28.0313V28.031V28.0308V28.0305V28.0302V28.03V28.0297V28.0294V28.0292V28.0289V28.0286V28.0283V28.0281V28.0278V28.0275V28.0273V28.027V28.0267V28.0265V28.0262V28.0259V28.0257V28.0254V28.0251V28.0249V28.0246V28.0243V28.024V28.0238V28.0235V28.0232V28.023V28.0227V28.0224V28.0222V28.0219V28.0216V28.0214V28.0211V28.0208V28.0206V28.0203V28.02V28.0198V28.0195V28.0192V28.0189V28.0187V28.0184V28.0181V28.0179V28.0176V28.0173V28.0171V28.0168V28.0165V28.0163V28.016V28.0157V28.0155V28.0152V28.0149V28.0146V28.0144V28.0141V28.0138V28.0136V28.0133V28.013V28.0128V28.0125V28.0122V28.012V28.0117V28.0114V28.0112V28.0109V28.0106V28.0103V28.0101V28.0098V28.0095V28.0093V28.009V28.0087V28.0085V28.0082V28.0079V28.0077V28.0074V28.0071V28.0068V28.0066V28.0063V28.006V28.0058V28.0055V28.0052V28.005V28.0047V28.0044V28.0041V28.0039V28.0036V28.0033V28.0031V28.0028V28.0025V28.0023V28.002V28.0017V28.0014V28.0012V28.0009V28.0006V28.0004V28.0001V27.9998V27.9995V27.9993V27.999V27.9987V27.9985V27.9982V27.9979V27.9976V27.9974V27.9971V27.9968V27.9966V27.9963V27.996V27.9957V27.9955V27.9952V27.9949V27.9947V27.9944V27.9941V27.9938V27.9936V27.9933V27.993V27.9928V27.9925V27.9922V27.9919V27.9917V27.9914V27.9911V27.9908V27.9906V27.9903V27.99V27.9897V27.9895V27.9892V27.9889V27.9887V27.9884V27.9881V27.9878V27.9876V27.9873V27.987V27.9867V27.9865V27.9862V27.9859V27.9856V27.9854V27.9851V27.9848V27.9845V27.9843V27.984V27.9837V27.9834V27.9832V27.9829V27.9826V27.9823V27.9821V27.9818V27.9815V27.9812V27.9809V27.9807V27.9804V27.9801V27.9798V27.9796V27.9793V27.979V27.9787V27.9785V27.9782V27.9779V27.9776V27.9773V27.9771V27.9768V27.9765V27.9762V27.9759V27.9757V27.9754V27.9751V27.9748V27.9746V27.9743V27.974V27.9737V27.9734V27.9732V27.9729V27.9726V27.9723V27.972V27.9717V27.9715V27.9712V27.9709V27.9706V27.9703V27.9701V27.9698V27.9695V27.9692V27.9689V27.9687V27.9684V27.9681V27.9678V27.9675V27.9672V27.967V27.9667V27.9664V27.9661V27.9658V27.9655V27.9653V27.965V27.9647V27.9644V27.9641V27.9638V27.9635V27.9633V27.963V27.9627V27.9624V27.9621V27.9618V27.9615V27.9613V27.961V27.9607V27.9604V27.9601V27.9598V27.9595V27.9593V27.959V27.9587V27.9584V27.9581V27.9578V27.9575V27.9572V27.957V27.9567V27.9564V27.9561V27.9558V27.9555V27.9552V27.9549V27.9546V27.9543V27.9541V27.9538V27.9535V27.9532V27.9529V27.9526V27.9523V27.952V27.9517V27.9514V27.9511V27.9508V27.9506V27.9503V27.8169V27.8152C18.4087 27.6997 18.4087 27.58 18.4001 27.4598Z" fill="#666666" stroke="#666666" stroke-width="0.2"/>
</svg>
